<?xml version="1.0" encoding="utf-8"?>
<!-- Generator: Adobe Illustrator 25.0.1, SVG Export Plug-In . SVG Version: 6.00 Build 0)  -->
<svg version="1.1" id="Calque_1" xmlns="http://www.w3.org/2000/svg" xmlns:xlink="http://www.w3.org/1999/xlink" x="0px" y="0px"
	 viewBox="0 0 184.07 223.98" style="enable-background:new 0 0 184.07 223.98;" xml:space="preserve">
<style type="text/css">
	.st0{fill:#253574;}
	.st1{fill:#E10A17;}
	.st2{fill:#9C9C9A;}
</style>
<polygon class="st0" points="1.53,83.52 21.49,83.52 21.49,89.83 8.48,89.83 8.48,97.17 19.54,97.17 19.54,103.48 8.48,103.48 
	8.48,117.77 1.53,117.77 "/>
<g>
	<path class="st0" d="M26.19,93.11h6.31v2.4c1.61-1.66,3.67-2.89,6.46-2.89c0.78,0,1.57,0.15,2.15,0.34v6.51
		c-0.74-0.2-1.57-0.34-2.74-0.34c-3.03,0-4.99,1.66-5.87,3.18v15.46h-6.31V93.11z"/>
	<path class="st0" d="M44,111.26c0-3.82,2.84-6.65,8.02-7.58l7.05-1.17v-0.69c0-2.59-1.86-4.26-4.6-4.26
		c-2.25,0-4.21,1.08-5.33,2.98l-4.6-3.52c2.25-2.98,5.77-4.89,10.18-4.89c7.05,0,10.62,4.31,10.62,9.69v15.95h-6.26v-2.3
		c-1.57,1.96-4.35,3.28-7.09,3.28C47.23,118.75,44,115.91,44,111.26 M53.1,113.51c2.74,0,4.7-1.42,5.97-3.38v-2.98l-5.53,0.93
		c-2.5,0.44-3.47,1.42-3.47,2.89C50.07,112.53,51.24,113.51,53.1,113.51"/>
	<path class="st0" d="M71.75,93.11h6.31v1.86c1.71-1.61,3.96-2.84,7.14-2.84c5.43,0,9.64,3.67,9.64,10.96v14.68h-6.26v-14.44
		c0-3.28-1.81-5.38-4.89-5.38c-3.13,0-4.75,2.15-5.63,3.67v16.15h-6.31V93.11z"/>
	<path class="st0" d="M118.58,109.99l4.99,3.82c-2.3,3.03-5.97,4.94-10.52,4.94c-8.42,0-13.51-6.12-13.51-13.31
		c0-7.19,5.09-13.31,13.51-13.31c4.55,0,8.22,1.91,10.52,4.94l-4.99,3.82c-1.17-1.71-2.99-2.94-5.48-2.94
		c-4.11,0-7.14,3.18-7.14,7.49c0,4.35,3.03,7.49,7.14,7.49C115.49,112.93,117.4,111.7,118.58,109.99"/>
	<path class="st0" d="M140.35,118.75c-8.76,0-13.65-6.12-13.65-13.31c0-7.24,4.55-13.31,12.92-13.31c6.61,0,11.01,4.65,11.01,11.06
		c0,1.37-0.15,2.74-0.39,3.52h-17.08c0.39,4.06,3.18,6.46,7.34,6.46c2.74,0,4.94-1.12,6.21-2.94l4.4,3.57
		C148.77,116.89,145,118.75,140.35,118.75 M133.5,101.67h10.96c-0.15-2.25-1.96-4.31-5.38-4.31c-1.76,0-3.13,0.54-4.16,1.61
		C134.29,99.67,133.8,100.45,133.5,101.67"/>
	<path class="st1" d="M37.27,160.18c-8.76,0-13.65-6.12-13.65-13.31c0-7.24,4.55-13.31,12.92-13.31c6.61,0,11.01,4.65,11.01,11.06
		c0,1.37-0.15,2.74-0.39,3.52H30.07c0.39,4.06,3.18,6.46,7.34,6.46c2.74,0,4.94-1.13,6.21-2.94l4.4,3.57
		C45.68,158.32,41.92,160.18,37.27,160.18 M30.42,143.1h10.96c-0.15-2.25-1.96-4.31-5.38-4.31c-1.76,0-3.13,0.54-4.16,1.61
		C31.2,141.1,30.71,141.88,30.42,143.1"/>
	<path class="st1" d="M52.43,134.54h6.31v2.4c1.61-1.66,3.67-2.89,6.46-2.89c0.78,0,1.57,0.15,2.15,0.34v6.51
		c-0.73-0.2-1.57-0.34-2.74-0.34c-3.03,0-4.99,1.66-5.87,3.18v15.46h-6.31V134.54z"/>
	<polygon class="st1" points="75.73,134.54 82.14,152.11 88.5,134.54 95.16,134.54 86.2,159.2 78.03,159.2 69.08,134.54 	"/>
	<path class="st1" d="M97.6,126.51c0-2.15,1.86-4.01,4.06-4.01c2.2,0,4.06,1.86,4.06,4.01c0,2.25-1.86,4.06-4.06,4.06
		C99.46,130.57,97.6,128.76,97.6,126.51 M98.53,134.54h6.31v24.66h-6.31V134.54z"/>
	<path class="st1" d="M129.07,151.42l4.99,3.82c-2.3,3.03-5.97,4.94-10.52,4.94c-8.42,0-13.51-6.12-13.51-13.31
		s5.09-13.31,13.51-13.31c4.55,0,8.22,1.91,10.52,4.94l-4.99,3.82c-1.17-1.71-2.98-2.94-5.48-2.94c-4.11,0-7.14,3.18-7.14,7.49
		c0,4.35,3.03,7.49,7.14,7.49C125.98,154.36,127.89,153.13,129.07,151.42"/>
	<path class="st1" d="M150.84,160.18c-8.76,0-13.65-6.12-13.65-13.31c0-7.24,4.55-13.31,12.92-13.31c6.61,0,11.01,4.65,11.01,11.06
		c0,1.37-0.15,2.74-0.39,3.52h-17.08c0.39,4.06,3.18,6.46,7.34,6.46c2.74,0,4.94-1.13,6.21-2.94l4.4,3.57
		C159.26,158.32,155.49,160.18,150.84,160.18 M143.99,143.1h10.96c-0.15-2.25-1.96-4.31-5.38-4.31c-1.76,0-3.13,0.54-4.16,1.61
		C144.77,141.1,144.29,141.88,143.99,143.1"/>
</g>
<g>
	<path class="st1" d="M169.05,151.66c1.52,1.91,3.38,3.28,5.53,3.28c1.91,0,3.03-0.98,3.03-2.45c0-3.77-11.35-2.54-11.35-11.35
		c0-4.4,3.67-7.59,8.81-7.59c3.82,0,7.14,1.81,9,4.21l-4.11,3.91c-1.27-1.66-2.94-2.89-4.7-2.89c-2.01,0-2.89,0.98-2.89,2.05
		c0,3.72,11.35,2.54,11.35,11.3c-0.1,5.19-4.26,8.02-8.91,8.02c-4.4,0-7.49-1.76-9.88-4.5L169.05,151.66z"/>
	<path class="st1" d="M4.11,151.66c1.52,1.91,3.38,3.28,5.53,3.28c1.91,0,3.04-0.98,3.04-2.45c0-3.77-11.35-2.54-11.35-11.35
		c0-4.4,3.67-7.59,8.81-7.59c3.82,0,7.14,1.81,9,4.21l-4.11,3.91c-1.27-1.66-2.94-2.89-4.7-2.89c-2.01,0-2.89,0.98-2.89,2.05
		c0,3.72,11.35,2.54,11.35,11.3c-0.1,5.19-4.26,8.02-8.91,8.02c-4.4,0-7.49-1.76-9.88-4.5L4.11,151.66z"/>
</g>
<g>
	<path class="st0" d="M60.42,58.56c0.02-0.01,0.03-0.02,0.05-0.03c0.18-0.08,0.35-0.2,0.49-0.33c-0.02-0.01-0.04-0.01-0.06-0.02
		C60.74,58.3,60.58,58.43,60.42,58.56"/>
</g>
<g>
	<path class="st0" d="M84.9,50.4c-0.06,0.04-0.11,0.08-0.17,0.12C84.82,50.51,84.9,50.49,84.9,50.4"/>
	<path class="st0" d="M77.17,58.93c0.72-0.72,1.44-1.49,2.16-2.26h-0.02c1.34-1.52,2.65-2.96,4.21-4.3c0.47-0.42,0.93-0.8,1.37-1.1
		c0.13-0.13,0.13-0.38,0.25-0.51c-0.63,0.25-1.01,0.76-1.64,1.01c-0.13,0-0.25-0.13-0.13-0.25c0.45-0.34,0.9-0.67,1.35-1.01
		c-0.03,0-0.06,0-0.09,0c-0.13,0-0.13-0.13-0.13-0.25c-1.64-0.25-2.9,0.88-4.04,1.89c-0.25,0.13-0.51-0.13-0.63-0.13
		c-1.89,0.63-3.28,2.27-5.18,3.03v-0.25c-0.76,0.25-1.49,0.71-2.27,0.88c-1.14,0.25-2.15,0.13-3.16,0.13
		c-1.53,0.15-3.06,0.49-4.59,0.82c-0.04,0.01-0.09,0.02-0.13,0.03c-0.82,0.22-1.6,0.53-2.35,0.95c-0.03,0.02-0.06,0.03-0.09,0.05
		c-0.06,0.08-0.12,0.16-0.18,0.22c-0.27,0.3-0.51,0.57-0.86,0.76c-0.78,0.4-1.41,1.08-2.09,1.64c-0.05,0.04-0.12,0.06-0.2,0.07
		c-0.68,0.65-1.35,1.31-2.03,1.95c-0.05,0.05-0.24,0.07-0.39,0.05c0-0.01,0.01-0.01,0.01-0.01c0.02-0.04,0.05-0.08,0.07-0.12
		c0.11-0.18,0.21-0.36,0.32-0.53c0.12-0.2,0.25-0.39,0.37-0.59c0.17-0.26,0.35-0.52,0.54-0.77c0.05-0.07,0.04-0.12,0-0.17
		c-0.04-0.04-0.11-0.07-0.17-0.07c0.63-0.61,1.38-1.13,2.12-1.58c0-0.01,0-0.02,0-0.02c-0.08,0.03-0.21-0.04-0.14-0.13
		c0.08-0.11,0.14-0.23,0.22-0.34c0.01-0.04,0.03-0.07,0.04-0.11c-0.03-0.03-0.06-0.07-0.1-0.1c-0.2,0.13-0.42,0.26-0.59,0.41
		c-0.3,0.27-0.54,0.83-1,0.82c-0.03,0-0.12-0.01-0.19-0.03c-0.05-0.01-0.1-0.03-0.13-0.05c0.01-0.01,0.01-0.02,0.02-0.03
		c0.01-0.01,0.01-0.02,0.02-0.04c0.01-0.01,0.01-0.02,0.02-0.03c0.02-0.04,0.04-0.07,0.06-0.11c0.02-0.04,0.04-0.07,0.06-0.11
		c0.02-0.03,0.03-0.06,0.05-0.09c0.03-0.05,0.06-0.11,0.09-0.16c0.02-0.04,0.04-0.08,0.07-0.11c0.05-0.09,0.11-0.19,0.16-0.28
		c0.03-0.04,0.05-0.09,0.08-0.13c0.05-0.08,0.09-0.15,0.13-0.23c0.06-0.1,0-0.19-0.1-0.22c0.23-0.3,0.52-0.56,0.87-0.75h-0.04
		c0.48-0.24,0.97-0.54,1.45-0.81c0.07-0.06,0.14-0.12,0.21-0.18c-0.72,0.24-1.37,0.57-2.01,0.99c0,0-0.17,0.07-0.21,0.11
		c0,0-0.15,0.06-0.32-0.11c-0.02-0.02-0.03-0.05-0.03-0.09c0.13-0.25,0.51-0.38,0.76-0.63c0.13,0,0.25,0,0.25,0.13
		c4.04-3.16,9.6-2.4,14.27-4.04c0.38-0.25,0.76-0.51,1.14-0.76c0.63-0.25,1.14-0.88,1.89-1.26c1.01-0.76,1.77-1.64,2.15-2.9
		c0-0.13-0.13-0.25-0.13-0.25c-1.64,1.77-3.54,3.16-5.55,4.17c-2.65,1.39-5.55,1.14-8.33,1.52c0.13-0.25,0.38-0.25,0.63-0.25
		c0-0.38,0.25-0.51,0.51-0.76h0.38c0.13,0,0.13-0.25,0.25-0.25c0.25,0,0.63-0.13,0.51-0.13c-0.38-0.51-1.14,0.38-1.77,0
		c0.25-0.25,0.13-0.63,0.38-0.76h0.51c0-0.25,0.25-0.51,0.25-0.51c1.89-1.14,3.66-2.02,5.43-3.03c-0.38,0-0.63,0.38-1.01,0.13
		c0.25,0,0-0.38,0.25-0.38c1.39-0.38,2.52-1.14,3.91-1.64c-0.51,0-0.88,0.38-1.39,0c0.25-0.13,0.38-0.38,0.76-0.38v-0.38
		c0-0.13,0.13-0.13,0.25-0.13c-0.13,0-0.25-0.13-0.25-0.13c0.13-0.25,0.51-0.13,0.76-0.38c-0.13,0-0.38,0-0.38-0.13
		c0.38-0.51,1.01-0.63,1.64-0.76c-0.13-0.25-0.51,0-0.51-0.25c0-0.13,0.13-0.13,0.25-0.13h-0.25c-0.25-0.13-0.13-0.38-0.13-0.5
		c0.76-0.88,0.76-2.02,1.14-3.03c-0.13,0-0.25,0-0.25-0.13c-1.26,1.39-3.28,1.89-5.18,2.4h-0.63c-0.63,0.25-1.51,0.25-2.15-0.13
		c-0.51-0.25-0.76-0.63-1.26-1.01c-1.01-0.63-2.02-1.14-3.16-1.52c-3.16-1.01-6.44-1.51-9.72-1.39c1.39-0.76,2.92-0.82,4.42-1.26
		c2.15-0.63,4.17-1.39,6.44-1.26c-0.38-0.13-0.88,0-1.26,0c-1.77-0.13-3.54,0.38-5.43,0.76c-1.26,0.25-2.4,0.76-3.66,1.01
		c-0.76,0.25-1.14,1.01-2.02,0.88v-0.38c1.26-1.52,2.78-3.03,4.8-3.16c2.27-0.38,4.42,0,6.69,0.25c1.64,0.13,3.16,0.51,4.8,0.88
		c0.63,0,0.76,1.01,1.26,1.14c0.76,0.25,1.51,0,2.27,0.51c0-0.25-0.13-0.51,0-0.76c0.51-0.51,1.14,0.13,1.64-0.13
		c1.01-0.63-0.88-1.77-1.39-2.65c0-0.13,0.13-0.25,0.13-0.25c1.01,0.88,1.77,1.89,3.03,2.53c0.63,0.25,2.15,0.63,1.89-0.13
		c-0.63-1.39-1.89-2.53-2.9-3.79V30.7c-0.25,0-0.25-0.13-0.38-0.25v-0.51c-0.51-0.25-0.38-0.76-0.63-1.14
		c-0.38-0.63-0.13-1.52-0.38-2.27c-0.25-0.76-0.38-1.39-0.5-2.15c-0.38-2.15-0.88-4.04-1.14-6.06c-0.25-2.4,1.39-4.29,2.52-6.44
		c0.88-1.52,1.89-3.03,3.54-4.04c0.38-1.52,1.39-2.78,2.4-4.04c1.01-1.23,2.68-1.98,3.9-2.53C86.27,0.49,87.86,0,87.86,0H1.53v66.81
		h61.04c2.4-1.73,4.8-2.55,8.16-4.21C72.32,61.83,75.94,60.16,77.17,58.93 M57.75,49.89c-0.25,0-0.76,0.13-0.63-0.13
		c0.13-0.63,1.01-0.63,1.51-0.88c0.25-0.13,0.63-0.38,0.88-0.25c0.25,0.38,0.63,0.25,0.88,0.51C59.65,49.89,58.64,49.51,57.75,49.89
		 M38.44,47.11c0,0-0.13-0.13-0.13-0.25c1.64-2.15,2.9-4.17,4.04-6.44c1.64-0.88,3-2.17,4.29-3.53c2.15-2.27,4.42-4.29,7.07-5.56
		c1.01-0.38,2.27-0.25,3.28,0.13c-0.38,0.5-1.01,0.38-1.51,0.76c-0.13,0-0.25,0-0.38-0.13c0.13-0.13,0.13-0.25,0.13-0.38
		c-1.26,1.39-3.03,2.02-4.04,3.66c-0.76,1.26-1.26,2.9-2.9,3.28c-0.51,0.13,0.13-0.38-0.13-0.25C44.24,40.8,41.47,43.7,38.44,47.11
		 M48.91,38.78c-0.13,0.25-0.27,0.28-0.38,0.51c-0.13,0.25-0.25,0.38-0.51,0.51c-0.13,0-0.25,0-0.25-0.13
		c0.13-0.51,0.51-1.01,1.01-1.14C48.91,38.53,48.91,38.65,48.91,38.78 M54.78,57.7c-0.06,0.14-0.18,0.26-0.31,0.37
		c0.16,0.03,0.27,0.1,0.17,0.19c-0.29,0.27-0.57,0.54-0.96,0.67c-0.03,0.01-0.1,0.02-0.19,0.03c-0.15,0.15-0.31,0.3-0.47,0.44
		c-0.15,0.13-0.84,0.04-0.63-0.15c0.32-0.28,0.62-0.59,0.93-0.88c0.18-0.16,0.37-0.32,0.53-0.5c0.09-0.1,0.16-0.2,0.27-0.28
		C54.21,57.51,54.88,57.45,54.78,57.7 M52.52,56.65c-0.01,0.01-0.02,0.02-0.03,0.02c-0.47,0.33-0.94,0.67-1.44,0.96
		c-0.54,0.31-1.11,0.55-1.67,0.82c0-0.01-0.01-0.02-0.02-0.03c-0.04-0.06-0.13-0.1-0.21-0.05c-0.48,0.26-0.89,0.6-1.27,0.97
		c-0.06,0.06-0.12,0.11-0.18,0.17c0,0-0.01,0.01-0.01,0.01c0,0-0.01,0.01-0.01,0.01c-0.06,0.06-0.12,0.12-0.18,0.18
		c-0.01,0.01-0.01,0.01-0.02,0.02c0,0,0,0.01-0.01,0.01c-0.09,0.09-0.18,0.18-0.27,0.3c-0.06,0.07-0.08,0.12-0.17,0.18
		c-0.08,0.05-0.29,0.05-0.27-0.09c0-0.01,0-0.02,0-0.03c-0.07,0.04-0.15,0.08-0.22,0.11c-0.07,0.03-0.13,0.07-0.2,0.11
		c-0.03-0.01-0.06-0.01-0.09-0.01c-0.03,0-0.06,0.01-0.09,0.03c-0.15,0.12-0.31,0.25-0.46,0.39c-0.26,0.24-0.51,0.5-0.73,0.78
		c0,0-0.01,0.01-0.01,0.01c-0.01,0.01-0.02,0.02-0.02,0.04c-0.01,0.02-0.02,0.03-0.04,0.05c-0.01,0.02-0.03,0.03-0.04,0.05
		c0,0.01-0.01,0.01-0.01,0.02c-0.03,0.04-0.06,0.08-0.09,0.12c0,0,0,0.01,0,0.01c-0.02,0.02-0.06,0.04-0.1,0.05
		c-0.02-0.02-0.04-0.05-0.05-0.07c-0.01-0.02-0.02-0.04-0.04-0.06c-0.04-0.07-0.07-0.13-0.11-0.2c0,0,0-0.01,0-0.01
		c-0.01-0.02-0.02-0.04-0.03-0.06c0.14-0.15,0.27-0.3,0.4-0.45c0.01-0.01,0.02-0.02,0.02-0.03c0.04-0.05,0.09-0.11,0.13-0.16
		c0.07-0.09,0.14-0.18,0.21-0.27c0.03-0.03,0.05-0.07,0.08-0.1c0.14-0.18,0.27-0.36,0.39-0.53c0,0,0.01-0.01,0.01-0.01
		c0.02-0.03,0.04-0.05,0.05-0.08c0.06-0.09,0.12-0.18,0.17-0.27c0.05-0.08,0.1-0.17,0.14-0.25c0-0.01,0.01-0.01,0.01-0.02
		c0.01-0.01,0.01-0.02,0.01-0.03c0.01-0.02,0.01-0.03,0.02-0.05c0.04-0.09,0.08-0.19,0.12-0.29c0-0.01,0.01-0.02,0.01-0.03
		c0.01-0.03,0.02-0.05,0.03-0.08c0.01-0.05,0.03-0.09,0.04-0.14c0,0,0,0,0,0c0-0.01,0.01-0.02,0.01-0.03
		c0.01-0.06,0.03-0.12,0.04-0.19c0.01-0.03,0-0.06-0.02-0.09c0.14-0.24,0.31-0.46,0.5-0.68c-0.02,0.01-0.04,0.02-0.06,0.03
		c-0.18,0.12-0.3,0.28-0.47,0.41c-0.14,0.1-0.39-0.07-0.23-0.19c0.11-0.08,0.2-0.17,0.29-0.26c0.01-0.01,0.01-0.01,0.01-0.02
		c0.21-0.2,0.41-0.47,0.64-0.64c0.15-0.11,0.27-0.2,0.39-0.3c0.02-0.02,0.04-0.03,0.06-0.05c0.09-0.12,0.18-0.22,0.28-0.32
		c0-0.01,0.01-0.01,0.01-0.01c1.21-1.17,3.24-1.11,4.84-1.86c0.63-0.25,1.39,0.13,2.02,0c0.38,0,0.76,0,1.14,0.25
		C54.6,55.31,53.55,56,52.52,56.65 M55.1,47.87c-0.13-0.13,0.38,0,0.5-0.25H54.6c-0.13,0-0.13-0.13-0.13-0.25
		c-0.63,0.13-1.39,0.38-2.02,0.5c-0.88,0.25-1.64,0.88-2.65,1.14c-1.39,0.51-2.52,1.64-4.04,2.15c-0.13,0-0.13-0.13-0.13-0.25
		c0.13-0.38,0.63-0.51,0.88-0.88c0-0.13,0-0.25-0.13-0.25c1.01-1.39,2.4-2.15,3.66-3.28V46.1c0.38-0.51,1.01-0.76,1.26-1.39
		c0.13-0.38,0.63-0.88,1.26-1.14c-0.13-0.13-0.38-0.13-0.38-0.38c-0.51,0-1.01,0.25-1.51-0.13c0.24-0.23,0.51-0.36,0.79-0.45
		c-0.11-0.02-0.21-0.08-0.29-0.18c-0.13-0.25,0.24-0.54,0.63-0.63c0.51-0.13,1.14-0.13,1.51-0.51c-0.88-0.13-1.89,0.25-2.78-0.25
		c0.63-1.64,1.64-3.03,3.16-3.79c0.12,0,0.38,0,0.38,0.13c0,0.63-0.38,1.14-1.01,1.26c1.01,0.25,2.02,0.25,3.03,0.76
		c-0.13,0.25-0.38,0.13-0.51,0.13c0.63,0.38,1.39,0.13,2.02,0.63c-0.38,0.38-0.76,0-1.14,0c3.91,1.14,8.08,2.02,11.36,4.54
		c-2.78,1.39-5.68,2.02-8.71,2.65c-0.38,0-0.63,0-1.01-0.13c0,0.13,0,0.38-0.13,0.38c-0.51,0-0.88,0-1.26,0.25
		C56.24,48.12,55.48,48.25,55.1,47.87"/>
	<path class="st1" d="M184.07,0h-70.99c0,0,0.14,0.02,0.68,0.32c0.58,0.31,1.34,0.72,1.81,0.96c0.93,0.49,1.83,1.09,2.41,2.02
		c0.25,0.38,0.63,1.14,0.38,1.64c-0.25,0.63-0.38,1.64-1.01,1.89c-0.76,0.38-1.77,0.38-2.65,0.25c-0.5,0-1.01-0.13-1.51-0.25
		c1.89,0.76,3.66,1.64,4.92,3.41c0.13,0.25,0.63,0.38,1.14,0.38c0.12,0,0.12,0.25,0.12,0.38c-0.25,0.25-0.5,0.38-0.38,0.76h0.38
		c0.63-0.25,0.51-1.51,1.39-1.14c0.63,0.38,0.88,1.26,0.51,1.89c-0.51,0.51-1.01,0.88-1.52,1.26c-0.13,0.25-0.13,0.63,0,0.88
		c0.38,0.51,0.51,1.01,0.63,1.52c0.38,0.88,0.51,1.89,0.89,2.78c0.5,1.89,1.01,3.79,0.88,5.68c0,1.01-0.51,1.89-0.13,2.9
		c0.25,1.01,0.88,1.77,1.39,2.65c0.51,0.76,1.01,1.26,1.39,2.02c0.76,1.26,2.15,2.52,1.51,4.04c-0.38,0.88-1.77,0.76-2.65,1.26
		c-0.76,0.63-0.13,1.64,0.25,2.27c0.63,1.14-0.76,1.89-1.64,2.27c0.25,0.38,0.76,0.25,0.88,0.51c0.13,0.63,0.76,1.01,0.38,1.64
		c-0.51,0.76-2.02,1.14-1.26,2.27c0.5,0.88,0.18,1.87-0.13,2.78c-0.38,1.14-1.39,1.64-2.27,1.89c-0.76,0.25-1.64,0.25-2.4,0.13
		c-0.25-0.13-0.51-0.25-0.76-0.25c-2.15-0.25-4.29-0.88-6.44-0.88c-0.63,0.13-1.26,0.25-1.77,0.5c-0.57,0.42-1.08,0.87-1.53,1.35
		c-0.01,0.01-0.01,0.01-0.01,0.02c-0.1,0.1-0.19,0.2-0.27,0.3c-0.06,0.07-0.11,0.13-0.16,0.19c-0.04,0.04-0.07,0.09-0.11,0.13
		c-0.37,0.46-0.7,0.95-0.99,1.46c-0.02,0.03-0.04,0.06-0.06,0.1c-0.03,0.06-0.07,0.12-0.1,0.18c-0.41,0.77-0.73,1.55-0.96,2.32
		c-0.86,2.89-0.48,5.37,0.12,5.97c0.17,0.17,4.17,1.4,6.95,2.64c1.31,0.58,2.22,1.03,2.98,1.51h69.7V0z"/>
	<path class="st2" d="M117.35,24.37c0.5,0.13,1.26,0.13,1.26,0.38c-0.25,1.01-1.77,1.26-2.53,2.27h-0.38
		c-0.38,0.25-0.25,0.88-0.63,0.88c-0.38-0.13-0.76,0-1.14,0.13c0.51,0.51,1.14,0.88,1.89,0.76c0.13,0,0.38,0.25,0.38,0.51
		c0,0,0.13,0,0.25-0.13c0.13,0,0.25,0,0.25,0.13v0.51c-0.38,0.51-1.01,0.25-1.52,0.38c1.01,0.25,2.02,0.25,2.9,0
		c0.76-0.25,0-1.52,0.51-2.15c-0.25,0,0-0.38-0.25-0.38c0.25-0.25,0.51-0.63,0.76-0.76c0.25,0,0.63-0.13,0.76-0.38
		c0-0.25-0.51-0.38-0.38-0.63c0.76-0.51,1.39-1.26,1.14-2.02c-0.13-0.38-1.14-0.38-1.77-0.63c-0.63-0.25-1.39,0-2.15,0.13
		c-0.63,0-1.26,0.38-1.89,0.51c-0.88,0.25-1.64,0.76-2.4,1.26c0.89-0.38,1.77-0.5,2.78-0.76C115.96,24.37,116.6,24.19,117.35,24.37"
		/>
	<path d="M64.97,217.19c0.53,0,1,0.4,0.75,1.43l-2.48,0.58C63.67,218.04,64.39,217.19,64.97,217.19 M66.34,221.19h-0.49
		c-0.62,0.74-1.29,1.31-1.95,1.31c-0.68,0-1.02-0.4-1.02-1.31c0-0.38,0.04-0.75,0.11-1.1l4-1.31c0.78-1.85-0.16-2.66-1.26-2.66
		c-1.89,0-4.04,3.16-4.04,5.93c0,1.24,0.59,1.92,1.52,1.92C64.29,223.98,65.41,222.92,66.34,221.19 M65.54,215.39l2.82-2.63v-0.3
		h-1.51l-1.73,2.93H65.54z M56.91,217.24h1.33L56.13,223c-0.19,0.49,0.07,0.98,0.58,0.98c1.2,0,3.13-1.18,3.81-2.8h-0.38
		c-0.53,0.56-1.56,1.31-2.44,1.47l1.93-5.41h1.98l0.24-0.82h-1.92l0.74-2.08h-0.77l-1.37,2.08l-1.63,0.23V217.24z M55.12,216.96
		c0.16-0.53-0.2-0.84-0.48-0.84c-1.15,0-2.53,1.04-3.08,2.5h0.38c0.38-0.53,1.01-1.13,1.6-1.23l-2.21,5.75
		c-0.2,0.53,0.2,0.84,0.48,0.84c1.1,0,2.38-1.05,2.93-2.5h-0.38c-0.38,0.53-1.01,1.12-1.6,1.23L55.12,216.96z M55.53,214.07
		c0.52,0,0.95-0.42,0.95-0.95c0-0.52-0.43-0.95-0.95-0.95c-0.53,0-0.95,0.43-0.95,0.95C54.57,213.66,54.99,214.07,55.53,214.07
		 M42.81,222.91c-0.29,0.65,0.01,1.07,0.65,1.07c0.39,0,0.56-0.1,0.72-0.52l1.53-4.06c0.71-0.87,2.17-1.79,2.74-1.79
		c0.42,0,0.36,0.35,0.09,0.87L46.19,223c-0.23,0.45,0.07,0.98,0.58,0.98c1.16,0,2.53-1.04,3.08-2.5h-0.38
		c-0.38,0.53-1.01,1.12-1.6,1.23l2.02-4.09c0.26-0.52,0.39-1.01,0.39-1.4c0-0.66-0.38-1.1-1.07-1.1c-1,0-2.01,1.13-3.2,2.51v-1.07
		c0-0.77-0.24-1.44-0.94-1.44c-0.43,0-0.85,0.38-1.24,0.91v0.14c0.75-0.04,1.08,1.08,0.55,2.27L42.81,222.91z M42.78,217.89
		c0.27-0.94,0.13-1.76-0.59-1.76c-0.85,0-1.07,0.65-1.93,2.51v-1.07c0-0.77-0.25-1.44-0.94-1.44c-0.81,0-1.55,1.26-2.11,2.5h0.38
		c0.39-0.56,0.75-0.9,1.04-0.9c0.35,0,0.53,0.54,0,1.72l-1.56,3.46c-0.29,0.65,0.02,1.07,0.65,1.07c0.39,0,0.56-0.1,0.72-0.52
		l1.53-4.06c0.43-0.53,0.82-1,1.31-1.52H42.78z M33.91,217.19c0.53,0,1,0.4,0.75,1.43l-2.48,0.58
		C32.62,218.04,33.34,217.19,33.91,217.19 M35.29,221.19H34.8c-0.62,0.74-1.29,1.31-1.95,1.31c-0.68,0-1.02-0.4-1.02-1.31
		c0-0.38,0.04-0.75,0.11-1.1l4-1.31c0.78-1.85-0.16-2.66-1.26-2.66c-1.89,0-4.04,3.16-4.04,5.93c0,1.24,0.59,1.92,1.52,1.92
		C33.24,223.98,34.36,222.92,35.29,221.19 M25.86,217.24h1.33L25.08,223c-0.19,0.49,0.07,0.98,0.58,0.98c1.2,0,3.13-1.18,3.81-2.8
		h-0.38c-0.53,0.56-1.56,1.31-2.44,1.47l1.93-5.41h1.98l0.24-0.82h-1.92l0.74-2.08h-0.77l-1.37,2.08l-1.63,0.23V217.24z
		 M18.57,221.73c0-1.78,1.98-4.19,3.09-4.19c0.24,0,0.48,0.03,0.68,0.09l-1.15,3.08c-0.66,0.81-1.69,1.79-2.16,1.79
		C18.74,222.49,18.57,222.26,18.57,221.73 M24.65,215.79l-0.61-0.04l-0.68,0.66h-0.14c-3.29,0-6.14,3.7-6.14,6.38
		c0,0.75,0.46,1.18,1.18,1.18c0.85,0,1.69-1.21,2.63-2.51l-0.04,0.46c-0.11,1.33,0.29,2.05,0.98,2.05c0.81,0,1.54-1.26,2.11-2.5
		h-0.38c-0.39,0.56-0.75,0.89-1.04,0.89c-0.3,0-0.52-0.55,0-1.72L24.65,215.79z M17.63,217.89c0.27-0.94,0.13-1.76-0.59-1.76
		c-0.85,0-1.07,0.65-1.93,2.51v-1.07c0-0.77-0.25-1.44-0.94-1.44c-0.81,0-1.54,1.26-2.11,2.5h0.38c0.39-0.56,0.75-0.9,1.04-0.9
		c0.35,0,0.54,0.54,0,1.72l-1.56,3.46c-0.29,0.65,0.02,1.07,0.65,1.07c0.39,0,0.56-0.1,0.72-0.52l1.53-4.06
		c0.43-0.53,0.82-1,1.31-1.52H17.63z M6.57,223.69l0.14-0.45c-1.92-0.36-2.17-0.36-1.4-2.45l0.78-2.15h2.12
		c0.95,0,0.97,0.39,0.82,1.43h0.55l1.27-3.48h-0.55c-0.48,0.82-0.85,1.43-1.89,1.43H6.33l1.11-3.05c0.35-0.97,0.55-1.17,1.85-1.17
		h0.92c1.34,0,1.5,0.36,1.5,1.72h0.53l0.45-2.37H4.72l-0.14,0.45c1.54,0.32,1.69,0.46,0.97,2.45l-1.73,4.74
		c-0.72,1.98-1.02,2.14-2.8,2.45l-0.13,0.45H6.57z"/>
</g>
<g>
	<path d="M45.64,199.15c0.53,0,1,0.4,0.75,1.43l-2.48,0.58C44.34,200,45.06,199.15,45.64,199.15 M47.01,203.15h-0.49
		c-0.62,0.74-1.28,1.31-1.95,1.31c-0.68,0-1.03-0.41-1.03-1.31c0-0.38,0.04-0.75,0.12-1.1l4-1.31c0.78-1.85-0.16-2.66-1.26-2.66
		c-1.89,0-4.04,3.16-4.04,5.93c0,1.24,0.59,1.92,1.52,1.92C44.96,205.93,46.08,204.88,47.01,203.15 M46.21,197.34l2.82-2.63v-0.3
		h-1.52l-1.73,2.93H46.21z M37.58,199.19h1.33l-2.11,5.76c-0.19,0.49,0.07,0.98,0.58,0.98c1.2,0,3.13-1.18,3.81-2.8h-0.38
		c-0.53,0.56-1.56,1.31-2.44,1.47l1.93-5.41h1.98l0.24-0.82h-1.92l0.74-2.08h-0.77l-1.37,2.08l-1.63,0.23V199.19z M35.79,198.92
		c0.16-0.53-0.2-0.84-0.48-0.84c-1.15,0-2.53,1.04-3.07,2.5h0.38c0.38-0.53,1.01-1.13,1.6-1.23l-2.21,5.75
		c-0.2,0.53,0.2,0.84,0.48,0.84c1.1,0,2.38-1.05,2.93-2.5h-0.38c-0.38,0.53-1.01,1.13-1.6,1.23L35.79,198.92z M36.2,196.03
		c0.52,0,0.95-0.42,0.95-0.95c0-0.52-0.43-0.95-0.95-0.95c-0.53,0-0.95,0.43-0.95,0.95C35.24,195.61,35.66,196.03,36.2,196.03
		 M28.52,204.66l4.03-10.55l-0.13-0.16l-2.53,0.29v0.3l0.49,0.38c0.45,0.35,0.3,0.68-0.1,1.75l-3.15,8.29
		c-0.23,0.45,0.07,0.98,0.58,0.98c1.16,0,2.38-1.04,2.93-2.5h-0.38C29.89,203.97,29.11,204.56,28.52,204.66 M20.86,203.68
		c0-1.78,1.98-4.19,3.09-4.19c0.24,0,0.48,0.03,0.68,0.09l-1.15,3.08c-0.66,0.81-1.69,1.79-2.17,1.79
		C21.04,204.44,20.86,204.21,20.86,203.68 M26.94,197.75l-0.61-0.04l-0.68,0.66h-0.14c-3.29,0-6.14,3.7-6.14,6.38
		c0,0.75,0.46,1.18,1.18,1.18c0.85,0,1.69-1.21,2.63-2.51l-0.04,0.46c-0.11,1.33,0.29,2.05,0.98,2.05c0.81,0,1.55-1.26,2.11-2.5
		h-0.38c-0.39,0.56-0.75,0.9-1.04,0.9c-0.3,0-0.52-0.55,0-1.72L26.94,197.75z M12.25,207.33c0-0.77,0.74-1.24,1.79-1.66
		c0.35,0.17,0.87,0.36,1.56,0.59c1.1,0.36,1.52,0.51,1.52,0.84c0,0.71-1.2,1.24-2.83,1.24C12.91,208.34,12.25,208.05,12.25,207.33
		 M15.23,202.67c-0.48,0-0.66-0.4-0.66-0.87c0-1.28,0.69-3.18,1.78-3.18c0.48,0,0.66,0.4,0.66,0.87
		C17.01,200.78,16.32,202.67,15.23,202.67 M18.37,206.62c0-0.92-0.82-1.26-2.16-1.66c-1.15-0.35-1.68-0.45-1.68-0.82
		c0-0.3,0.25-0.66,0.74-0.92c1.89-0.1,3.12-1.8,3.12-3.23c0-0.3-0.06-0.56-0.16-0.79h1.6l0.25-0.82h-2.54
		c-0.3-0.19-0.66-0.29-1.03-0.29c-2.01,0-3.31,1.76-3.31,3.19c0,1.08,0.69,1.76,1.53,1.92c-0.94,0.42-1.46,0.91-1.46,1.49
		c0,0.33,0.12,0.56,0.39,0.78c-2.17,0.64-3.02,1.36-3.02,2.38c0,1,1.31,1.42,2.87,1.42C16.16,209.25,18.37,207.82,18.37,206.62
		 M8.28,200.45c0.95,0,0.97,0.39,0.82,1.43h0.55l1.27-3.48h-0.55c-0.48,0.82-0.85,1.43-1.89,1.43H6.38l1.05-2.9
		c0.35-0.97,0.55-1.16,1.85-1.16h0.92c1.34,0,1.5,0.36,1.5,1.7h0.53l0.45-2.37H4.72l-0.14,0.45c1.54,0.32,1.69,0.46,0.97,2.46
		l-1.73,4.73c-0.72,1.98-1.02,2.14-2.8,2.45l-0.13,0.45h8.86l1.59-2.51h-0.61c-1.01,0.95-2.28,1.86-4.06,1.86
		c-2.35,0-2.14-0.1-1.36-2.25l0.84-2.3H8.28z M9.43,194.4l2.81-1.93v-0.3h-1.7l-1.56,2.24H9.43z"/>
	<path d="M44.7,181.1c0.54,0,1,0.4,0.75,1.43l-2.48,0.58C43.4,181.95,44.12,181.1,44.7,181.1 M46.07,185.1h-0.49
		c-0.62,0.74-1.29,1.31-1.95,1.31c-0.68,0-1.02-0.4-1.02-1.31c0-0.38,0.04-0.75,0.12-1.1l4-1.31c0.78-1.85-0.16-2.66-1.25-2.66
		c-1.89,0-4.04,3.16-4.04,5.93c0,1.24,0.59,1.92,1.52,1.92C44.02,187.89,45.15,186.83,46.07,185.1 M45.28,179.3l2.82-2.63v-0.3
		h-1.52l-1.73,2.93H45.28z M37,181.15h1.05l-2.11,5.76c-0.19,0.49,0.07,0.98,0.58,0.98c1.2,0,3.13-1.18,3.81-2.8h-0.38
		c-0.53,0.56-1.56,1.31-2.44,1.47l1.93-5.41h1.98l0.24-0.82h-1.92l0.74-2.08h-0.77l-1.37,2.08L37,180.55V181.15z M35.96,181.79
		c0.27-0.94,0.13-1.76-0.59-1.76c-0.85,0-1.07,0.65-1.93,2.51v-1.07c0-0.77-0.25-1.44-0.94-1.44c-0.81,0-1.54,1.26-2.11,2.5h0.38
		c0.39-0.56,0.75-0.9,1.04-0.9c0.35,0,0.53,0.53,0,1.72l-1.56,3.47c-0.29,0.65,0.01,1.07,0.65,1.07c0.39,0,0.56-0.1,0.72-0.52
		l1.53-4.06c0.43-0.53,0.82-1,1.31-1.52H35.96z M27.1,181.1c0.53,0,1,0.4,0.75,1.43l-2.48,0.58C25.8,181.95,26.52,181.1,27.1,181.1
		 M28.47,185.1h-0.49c-0.62,0.74-1.29,1.31-1.95,1.31c-0.68,0-1.02-0.4-1.02-1.31c0-0.38,0.04-0.75,0.12-1.1l4-1.31
		c0.78-1.85-0.16-2.66-1.26-2.66c-1.89,0-4.04,3.16-4.04,5.93c0,1.24,0.59,1.92,1.52,1.92C26.42,187.89,27.55,186.83,28.47,185.1
		 M18.67,186.72c-0.39,0-0.95-0.36-0.95-0.68c0-0.1,0.17-0.55,0.39-1.11l0.65-1.72c0.69-0.82,1.75-1.7,2.34-1.7
		c0.36,0,0.64,0.23,0.64,0.77C21.73,183.84,20.26,186.72,18.67,186.72 M23.22,181.64c0-1.17-0.43-1.6-1.24-1.6
		c-1.01,0-1.96,1.07-2.92,2.37l2.41-6.34l-0.13-0.16l-2.53,0.29v0.3l0.49,0.38c0.45,0.35,0.3,0.71-0.1,1.75l-2.6,6.7
		c-0.19,0.49-0.42,1.07-0.42,1.23c0,0.69,0.94,1.34,1.79,1.34C19.94,187.89,23.22,184.35,23.22,181.64 M15.36,180.87
		c0.16-0.53-0.2-0.84-0.48-0.84c-1.15,0-2.53,1.04-3.07,2.5h0.38c0.38-0.54,1.01-1.13,1.6-1.23l-2.21,5.74
		c-0.2,0.53,0.2,0.84,0.48,0.84c1.1,0,2.38-1.05,2.93-2.5h-0.38c-0.38,0.53-1.01,1.13-1.6,1.23L15.36,180.87z M15.77,177.98
		c0.52,0,0.95-0.42,0.95-0.95c0-0.52-0.43-0.95-0.95-0.95c-0.53,0-0.95,0.43-0.95,0.95C14.82,177.56,15.23,177.98,15.77,177.98
		 M9.95,177.06H4.7l-0.14,0.45c1.54,0.32,1.69,0.46,0.97,2.45l-1.7,4.73c-0.72,1.98-1.02,2.14-2.8,2.45l-0.13,0.45h8l1.73-3.09
		h-0.61c-0.98,1.08-2.14,2.44-3.91,2.44c-1.34,0-1.5-0.23-0.78-2.25l1.7-4.73c0.71-1.98,1.03-2.14,2.8-2.45L9.95,177.06z"/>
</g>
</svg>
